# This file uses centimeters as units for non-parametric coordinates.

mtllib table.mtl
g default
v -2.785252 1.998073 1.652415
v 2.785252 1.998073 1.652415
v -2.785252 1.998073 -1.652415
v 2.785252 1.998073 -1.652415
v -2.785257 2.138366 1.652420
v 2.785257 2.138366 1.652420
v 2.785257 2.138366 -1.652420
v -2.785257 2.138366 -1.652420
v -2.513087 1.998073 1.652415
v -2.513087 1.998073 -1.652415
v -2.513088 2.138366 -1.652415
v -2.513087 2.222487 -1.652415
v -2.513087 2.222487 1.652415
v -2.513087 2.138366 1.652415
v -2.785252 2.222487 1.381879
v -2.513087 2.222487 1.381878
v 2.785252 2.222487 1.381879
v 2.785252 2.138366 1.381879
v 2.785252 1.998073 1.381878
v -2.513087 1.998073 1.381879
v -2.785252 1.998073 1.381878
v -2.785252 2.138366 1.381878
v -2.785252 1.998073 -1.381518
v -2.513087 1.998073 -1.381519
v 2.785252 1.998073 -1.381518
v 2.785252 2.138366 -1.381519
v 2.785252 2.222487 -1.381519
v -2.513087 2.222487 -1.381518
v -2.785252 2.222487 -1.381519
v -2.785252 2.138366 -1.381518
v 2.493948 2.138366 -1.652415
v 2.493950 1.998073 -1.652415
v 2.493950 1.998073 -1.381518
v 2.493948 1.998073 1.381878
v 2.493950 1.998073 1.652415
v 2.493950 2.138366 1.652415
v 2.493950 2.222487 1.652415
v 2.493950 2.222487 1.381879
v 2.493948 2.222487 -1.381519
v 2.493950 2.222487 -1.652415
v -2.513087 2.138366 1.852415
v 2.493950 2.138366 1.852415
v -2.513088 2.138366 -1.852415
v 2.493948 2.138366 -1.852415
v 2.985252 2.138366 1.381879
v 2.985252 2.138366 -1.381519
v -2.985252 2.138366 -1.381518
v -2.985252 2.138366 1.381878
v -2.525100 -0.001926 1.393819
v -2.773239 -0.001926 1.393819
v -2.525100 -0.001926 1.640474
v -2.773239 -0.001926 1.640474
v -2.768080 -0.001926 -1.635323
v -2.530259 -0.001926 -1.635323
v -2.530259 -0.001926 -1.398611
v -2.768080 -0.001926 -1.398610
v 2.513843 -0.001926 -1.400018
v 2.765358 -0.001926 -1.400018
v 2.513843 -0.001926 -1.633915
v 2.765358 -0.001926 -1.633915
v 2.493948 -0.001927 1.381878
v 2.493950 -0.001927 1.652415
v 2.785252 -0.001927 1.381878
v 2.785252 -0.001927 1.652415
v 2.493950 2.088073 -1.381518
v 2.493948 2.088073 1.381878
v -2.513087 2.088073 1.381879
v -2.513087 2.088073 -1.381519
v -2.513087 2.172019 1.852415
v -2.511136 2.207705 1.837633
v -2.506425 2.222487 1.801947
v 2.487603 2.222487 1.801947
v 2.492090 2.207705 1.837633
v 2.493950 2.172019 1.852415
v -2.506425 2.222487 -1.801947
v -2.511136 2.207705 -1.837633
v -2.513088 2.172019 -1.852415
v 2.493949 2.172019 -1.852415
v 2.492090 2.207705 -1.837633
v 2.487603 2.222487 -1.801947
v 2.985252 2.172019 1.381879
v 2.970470 2.207705 1.379919
v 2.934785 2.222487 1.375188
v 2.934785 2.222487 -1.374835
v 2.970470 2.207705 -1.379561
v 2.985252 2.172019 -1.381519
v -2.985252 2.172019 -1.381519
v -2.970470 2.207706 -1.379561
v -2.934785 2.222487 -1.374835
v -2.934785 2.222487 1.375188
v -2.970470 2.207706 1.379919
v -2.985252 2.172019 1.381878
v -2.727675 2.172019 1.794755
v -2.854431 2.172019 1.721560
v -2.927766 2.172019 1.594885
v -2.715621 2.207705 1.782688
v -2.842377 2.207705 1.709493
v -2.915712 2.207706 1.582818
v -2.886611 2.222487 1.553685
v -2.813277 2.222487 1.680360
v -2.686521 2.222487 1.753555
v -2.686503 2.222487 -1.753560
v -2.813256 2.222487 -1.680357
v -2.886569 2.222487 -1.553666
v -2.715609 2.207705 -1.782692
v -2.842361 2.207705 -1.709488
v -2.915674 2.207706 -1.582797
v -2.927731 2.172019 -1.594863
v -2.854418 2.172019 -1.721554
v -2.727664 2.172019 -1.794758
v 2.927917 2.172019 1.594323
v 2.854133 2.172019 1.720876
v 2.726603 2.172019 1.792959
v 2.915895 2.207705 1.582138
v 2.842111 2.207705 1.708692
v 2.714580 2.207705 1.780774
v 2.685546 2.222487 1.751361
v 2.813085 2.222487 1.679274
v 2.886874 2.222487 1.552712
v 2.886830 2.222487 -1.552693
v 2.813064 2.222487 -1.679270
v 2.685527 2.222487 -1.751366
v 2.915858 2.207705 -1.582117
v 2.842095 2.207705 -1.708686
v 2.714567 2.207705 -1.780778
v 2.726591 2.172019 -1.792961
v 2.854120 2.172019 -1.720870
v 2.927882 2.172019 -1.594301
v -2.854418 2.138366 -1.721554
v -2.727664 2.138366 -1.794758
v -2.927731 2.138366 -1.594863
v -2.854431 2.138366 1.721560
v -2.927766 2.138366 1.594885
v -2.727675 2.138366 1.794755
v 2.854133 2.138366 1.720876
v 2.726603 2.138366 1.792959
v 2.927917 2.138366 1.594323
v 2.854120 2.138366 -1.720870
v 2.927882 2.138366 -1.594301
v 2.726591 2.138366 -1.792961
v -2.726661 2.222487 -1.593860
v -2.785252 2.222487 -1.452495
v -2.585212 2.222487 -1.652415
v -2.726656 2.222487 1.593864
v -2.585195 2.222487 1.652415
v -2.785252 2.222487 1.452511
v 2.726401 2.222487 1.594116
v 2.785252 2.222487 1.453371
v 2.584322 2.222487 1.652415
v 2.726406 2.222487 -1.594111
v 2.584339 2.222487 -1.652415
v 2.785252 2.222487 -1.453355
vt 0.317209 0.414179
vt 0.234864 0.439503
vt 0.538833 0.414164
vt 0.515175 0.479387
vt 0.686545 0.974444
vt 0.748846 0.949242
vt 0.291093 0.414506
vt 0.559770 0.414521
vt 0.668242 0.237811
vt 0.059802 0.685440
vt 0.537177 0.685483
vt 0.234861 0.414164
vt 0.318628 0.346504
vt 0.239039 0.416095
vt 0.748812 0.281477
vt 0.517990 0.414165
vt 0.267539 0.268929
vt 0.512664 0.414164
vt 0.837775 0.908308
vt 0.059780 0.934420
vt 0.035257 0.934420
vt 0.514745 0.457111
vt 0.276611 0.101749
vt 0.477459 0.396350
vt 0.234869 0.466786
vt 0.685538 0.933941
vt 0.510931 0.685480
vt 0.510908 0.934459
vt 0.342132 0.606094
vt 0.270989 0.606986
vt 0.294652 0.606406
vt 0.318462 0.606108
vt 0.537528 0.568052
vt 0.555824 0.568364
vt 0.574026 0.568986
vt 0.519315 0.568053
vt 0.362201 0.498706
vt 0.361140 0.443707
vt 0.361828 0.461583
vt 0.362199 0.480817
vt 0.020259 0.439535
vt 0.047550 0.492154
vt 0.047539 0.414193
vt 0.047542 0.439531
vt 0.227797 0.410210
vt 0.478581 0.393564
vt 0.320597 0.344263
vt 0.270465 0.268303
vt 0.924693 0.251210
vt 0.611969 0.156293
vt 0.410520 0.201449
vt 0.736831 0.167166
vt 0.510910 0.958868
vt 0.035280 0.685436
vt 0.748842 0.889624
vt 0.638382 0.155230
vt 0.667300 0.199970
vt 0.668241 0.237810
vt 0.762218 0.174492
vt 0.837740 0.240622
vt 0.837744 0.300160
vt 0.324518 0.250828
vt 0.685538 0.933943
vt 0.435876 0.192001
vt 0.620030 0.156299
vt 0.761718 0.175591
vt 0.325135 0.251866
vt 0.744423 0.169702
vt 0.418112 0.198940
vt 0.638255 0.156431
vt 0.931730 0.256321
vt 0.436132 0.193181
vt 0.060369 0.972301
vt 0.059802 0.661065
vt 0.044172 0.651959
vt 0.546328 0.670090
vt 0.021806 0.686032
vt 0.537155 0.934462
vt 0.550628 0.933866
vt 0.026135 0.949933
vt 0.510937 0.661105
vt 0.510373 0.647632
vt 0.528176 0.967773
vt 0.059952 0.644112
vt 0.754388 0.172575
vt 0.060398 0.647592
vt 0.754110 0.173965
vt 0.612418 0.158848
vt 0.044147 0.967932
vt 0.612192 0.157480
vt 0.041422 0.970789
vt 0.554130 0.685633
vt 0.318534 0.256115
vt 0.550650 0.686081
vt 0.319521 0.257135
vt 0.411753 0.203732
vt 0.546299 0.949887
vt 0.411106 0.202506
vt 0.549147 0.952640
vt 0.018304 0.934270
vt 0.630392 0.155882
vt 0.021785 0.933822
vt 0.630566 0.157289
vt 0.736452 0.169732
vt 0.026156 0.669952
vt 0.736668 0.168362
vt 0.023301 0.667225
vt 0.923528 0.253528
vt 0.528206 0.652203
vt 0.924163 0.252294
vt 0.530921 0.649319
vt 0.510769 0.975821
vt 0.427825 0.195287
vt 0.510344 0.972340
vt 0.428434 0.196568
vt 0.035260 0.940814
vt 0.059776 0.958828
vt 0.035283 0.679073
vt 0.537176 0.679043
vt 0.537152 0.940933
vt 0.754822 0.171443
vt 0.780173 0.234598
vt 0.053306 0.661067
vt 0.053279 0.958825
vt 0.630447 0.154671
vt 0.687291 0.207486
vt 0.317856 0.255115
vt 0.666802 0.966772
vt 0.519078 0.661110
vt 0.519053 0.958864
vt 0.427498 0.194120
vt 0.806388 0.955137
vt 0.749489 0.170851
vt 0.749096 0.172214
vt 0.032768 0.658557
vt 0.032744 0.961331
vt 0.029959 0.964118
vt 0.625199 0.155790
vt 0.314286 0.259184
vt 0.935345 0.260158
vt 0.539678 0.658703
vt 0.539649 0.961274
vt 0.542426 0.964087
vt 0.422862 0.196828
vt 0.625148 0.154586
vt 0.749821 0.169693
vt 0.313581 0.258203
vt 0.422435 0.195702
vt 0.040541 0.953544
vt 0.040567 0.666344
vt 0.531872 0.666368
vt 0.531846 0.953607
vt 0.978622 0.331870
vt 0.580601 0.415234
vt 0.258750 0.266842
vt 0.978624 0.317019
vt 0.519317 0.586351
vt 0.537529 0.586350
vt 0.318475 0.629920
vt 0.342145 0.629907
vt 0.265139 0.415142
vt 0.310483 0.350238
vt 0.978609 0.498204
vt 0.978609 0.513125
vt 0.047547 0.466815
vt 0.020255 0.414197
vt 0.342962 0.480819
vt 0.342964 0.498708
vt 0.978666 0.027591
vt 0.513948 0.436407
vt 0.270874 0.093934
vt 0.978616 0.984787
vt 0.234873 0.492125
vt 0.474024 0.404640
vt 0.978606 0.803602
vt 0.978606 0.818434
vt 0.227859 0.019122
vt 0.279599 0.102085
vt 0.012016 0.019088
vt 0.011955 0.410176
vt 0.515177 0.500106
vt 0.360031 0.424502
vt 0.234877 0.519409
vt 0.047555 0.519438
vt 0.343170 0.414164
vt 0.247193 0.607855
vt 0.601514 0.416308
vt 0.592300 0.569925
vt 0.978615 0.969935
vt 0.321706 0.023401
vt 0.978626 0.302098
vt 0.267484 0.102283
vt 0.317777 0.355642
vt 0.978606 0.787632
vt 0.260883 0.275421
vt 0.978611 0.483372
vt 0.329980 0.028713
vt 0.332921 0.029164
vt 0.978668 0.011620
vt 0.970974 0.027589
vt 0.970934 0.302096
vt 0.970977 0.011619
vt 0.970931 0.331870
vt 0.970919 0.483371
vt 0.970932 0.317018
vt 0.970914 0.787632
vt 0.970918 0.513125
vt 0.970918 0.498203
vt 0.970923 0.969936
vt 0.970924 0.984788
vt 0.970915 0.818435
vt 0.970914 0.803602
vt 0.417592 0.197853
vt 0.696300 0.983782
vt 0.705882 0.965802
vt 0.932321 0.255271
vt 0.822581 0.225557
vt 0.806345 0.253409
vt 0.619879 0.155101
vt 0.764067 0.964456
vt 0.780200 0.936574
vt 0.744658 0.168521
vt 0.657449 0.190592
vt 0.647710 0.208467
vt 0.713344 0.933252
vt 0.793729 0.300162
vt 0.640435 0.238501
vt 0.792857 0.889622
vt 0.657732 0.934632
vt 0.793760 0.908310
vt 0.792827 0.281474
vt 0.696048 0.237120
vt 0.436454 0.194530
vt 0.530892 0.970657
vt 0.510799 0.644152
vt 0.930831 0.257418
vt 0.018327 0.685583
vt 0.743918 0.171027
vt 0.638137 0.157813
vt 0.023280 0.952659
vt 0.554108 0.934315
vt 0.418496 0.200305
vt 0.325868 0.253043
vt 0.549175 0.667337
vt 0.059922 0.975781
vt 0.619967 0.157715
vt 0.761172 0.176865
vt 0.041449 0.649100
vt 0.423361 0.198158
vt 0.542455 0.655890
vt 0.625256 0.157208
vt 0.029984 0.655769
vt 0.936216 0.259030
vt 0.315246 0.260237
vt 0.936840 0.257992
vt 0.764033 0.206721
vt 0.748810 0.221938
vt 0.676676 0.190116
vt 0.667303 0.199971
vt 0.822623 0.982990
vt 0.837777 0.967925
vt 0.677264 0.984254
vt 0.686544 0.974441
vn 0.000000 1.000000 0.000000
vn 0.000000 1.000000 0.000000
vn 0.000000 1.000000 0.000000
vn 0.000000 1.000000 0.000000
vn -0.017962 -0.999309 0.032546
vn -0.017962 -0.999309 -0.032546
vn 0.017962 -0.999309 -0.032546
vn 0.017962 -0.999309 0.032546
vn 0.000000 -0.000001 1.000000
vn 0.267776 -0.707231 0.654309
vn -0.274486 -0.687177 0.672640
vn -0.000000 -0.000001 1.000000
vn 1.000000 -0.000001 -0.000001
vn 0.697308 -0.580651 -0.420245
vn 0.688391 -0.604862 0.400324
vn 1.000000 -0.000002 0.000001
vn 0.263336 -0.712036 -0.650891
vn 0.000000 -0.000001 -1.000000
vn -0.000000 -0.000001 -1.000000
vn -0.258654 -0.704267 -0.661140
vn -1.000000 -0.000001 0.000001
vn -0.713286 -0.583156 0.388784
vn -0.715557 -0.576705 -0.394195
vn -1.000000 -0.000002 -0.000001
vn 0.225900 -0.947345 0.226952
vn 0.230454 -0.945063 -0.231835
vn -0.705453 -0.000024 -0.708757
vn -0.705417 -0.011267 -0.708703
vn 0.000001 1.000000 0.000000
vn 0.000001 1.000000 -0.000000
vn -0.704968 -0.007889 0.709195
vn -0.704981 -0.000025 0.709226
vn 0.000000 1.000000 -0.000000
vn 0.000000 1.000000 -0.000000
vn 0.680507 -0.000002 0.732742
vn 0.680506 -0.000024 0.732742
vn -0.235117 -0.938418 -0.253164
vn -0.702036 -0.091198 -0.706278
vn 0.702036 -0.091198 -0.706277
vn 0.702035 -0.091198 0.706278
vn -0.702037 -0.091198 0.706277
vn -0.702609 -0.089565 -0.705917
vn 0.702608 -0.089565 -0.705918
vn 0.702609 -0.089565 0.705917
vn -0.702608 -0.089565 0.705918
vn -0.218856 -0.946977 0.235236
vn 0.681090 -0.012594 -0.732091
vn 0.680991 -0.000025 -0.732292
vn 0.000000 1.000000 0.000000
vn 0.000000 1.000000 0.000000
vn 0.677942 -0.092035 0.729331
vn -0.677942 -0.092034 0.729331
vn -0.677942 -0.092034 -0.729331
vn 0.677942 -0.092035 -0.729331
vn -0.677187 -0.098634 0.729170
vn -0.677189 -0.098633 -0.729169
vn 0.677187 -0.098633 -0.729170
vn 0.677189 -0.098634 0.729169
vn 0.000000 1.000000 0.000000
vn 0.000000 1.000000 0.000000
vn 0.000000 -1.000000 0.000000
vn 0.000000 -1.000000 -0.000000
vn 0.001900 -0.985878 0.167452
vn -0.001848 -0.985900 0.167324
vn 0.000000 -1.000000 -0.000000
vn 0.000000 -1.000000 0.000000
vn -0.001848 -0.985901 -0.167322
vn 0.001900 -0.985878 -0.167452
vn 0.000000 -1.000000 0.000000
vn 0.000000 -1.000000 0.000000
vn 0.168345 -0.985723 -0.003245
vn 0.168341 -0.985724 0.003243
vn -0.000001 -1.000000 0.000000
vn -0.000001 -1.000000 0.000000
vn -0.168365 -0.985720 0.003252
vn -0.168369 -0.985719 -0.003253
vn -0.000000 -1.000000 0.000000
vn 0.000000 -1.000000 0.000001
vn -0.000000 -1.000000 0.000000
vn 0.000000 -1.000000 0.000000
vn 0.000000 -1.000000 -0.000000
vn 0.000000 -1.000000 -0.000000
vn -0.000001 -1.000000 0.000000
vn 0.000000 -1.000000 -0.000000
vn 0.000000 -1.000000 0.000000
vn -0.000001 -1.000000 0.000000
vn 0.000000 -1.000000 -0.000001
vn 0.000000 -1.000000 -0.000000
vn -0.483197 0.000000 0.875512
vn -0.483197 0.000000 -0.875512
vn 0.483197 0.000000 -0.875512
vn 0.483197 0.000000 0.875512
vn -0.000835 0.996478 0.083844
vn -0.007647 0.690318 0.723465
vn 0.007876 0.691114 0.722703
vn 0.000864 0.996485 0.083772
vn -0.010685 0.205467 0.978606
vn 0.010989 0.205613 0.978572
vn -0.010684 0.205464 -0.978606
vn -0.007646 0.690314 -0.723469
vn 0.007875 0.691112 -0.722704
vn 0.010988 0.205612 -0.978572
vn -0.000834 0.996479 -0.083844
vn 0.000864 0.996485 -0.083772
vn 0.084832 0.996394 0.001476
vn 0.723657 0.690031 0.013358
vn 0.723642 0.690046 -0.013366
vn 0.084832 0.996394 -0.001477
vn 0.978471 0.205540 0.018645
vn 0.978470 0.205542 -0.018654
vn -0.084842 0.996393 -0.001484
vn -0.723629 0.690059 -0.013407
vn -0.723644 0.690043 0.013400
vn -0.084843 0.996393 0.001483
vn -0.978468 0.205549 -0.018703
vn -0.978469 0.205546 0.018693
vn -0.330593 0.932864 0.143085
vn -0.238774 0.941194 0.239040
vn -0.075848 0.994224 0.075933
vn -0.110871 0.993022 0.040183
vn -0.142577 0.932834 0.330896
vn -0.040071 0.993001 0.111105
vn -0.859552 0.398555 -0.319883
vn -0.637700 0.431257 -0.638244
vn -0.687724 0.230789 -0.688312
vn -0.909032 0.213590 -0.357826
vn -0.318861 0.398498 -0.859958
vn -0.356725 0.213531 -0.909479
vn 0.137389 0.932805 0.333167
vn 0.236541 0.941583 0.239730
vn 0.075954 0.994135 0.076978
vn 0.038987 0.992722 0.113942
vn 0.329620 0.933121 0.143656
vn 0.111046 0.992995 0.040368
vn 0.305031 0.398144 -0.865123
vn 0.633345 0.432503 -0.641728
vn 0.683369 0.231444 -0.692416
vn 0.342260 0.212948 -0.915156
vn 0.859009 0.398981 -0.320806
vn 0.908384 0.213869 -0.359302
vn -0.357976 0.000001 -0.933731
vn -0.356696 0.213528 0.909491
vn -0.357951 0.000000 0.933740
vn 0.908269 0.213877 0.359589
vn 0.932666 0.000000 0.360741
vn -0.933185 0.000000 0.359396
vn -0.908918 0.213600 0.358112
vn 0.932780 0.000000 -0.360447
vn -0.933298 -0.000007 -0.359103
vn 0.343038 0.000000 0.939321
vn 0.342234 0.212946 0.915167
vn 0.343062 -0.000001 -0.939313
vn -0.040074 0.993000 -0.111109
vn 0.000000 1.000000 0.000001
vn 0.000000 1.000000 -0.000000
vn 0.000000 1.000000 0.000000
vn 0.000000 1.000000 0.000000
vn 0.111099 0.992990 -0.040346
vn 0.000000 1.000000 0.000000
vn 0.000000 1.000000 -0.000001
vn -0.110925 0.993017 -0.040162
vn 0.000000 1.000000 0.000000
vn 0.000000 1.000000 -0.000001
vn 0.038990 0.992722 -0.113945
vn -0.318841 0.398493 0.859967
vn -0.142587 0.932839 -0.330877
vn 0.858906 0.398982 0.321082
vn 0.329668 0.933119 -0.143554
vn -0.330641 0.932862 -0.142985
vn -0.859450 0.398555 0.320156
vn 0.305013 0.398139 0.865131
vn 0.137401 0.932809 -0.333150
vn 0.000000 -1.000000 0.000001
vn 0.000000 -1.000000 0.000001
vn 0.000000 -1.000000 -0.000000
vn 0.000000 -1.000000 0.000000
vn 0.000000 1.000000 -0.000000
vn 0.000000 1.000000 0.000000
vn 0.000000 1.000000 0.000000
vn 0.000000 1.000000 -0.000001
vn -0.687641 0.230776 0.688398
vn -0.706718 0.000000 0.707496
vn -0.637631 0.431228 0.638333
vn -0.075869 0.994222 -0.075934
vn -0.238790 0.941201 -0.238997
vn -0.706802 -0.000003 -0.707411
vn 0.683286 0.231431 0.692502
vn 0.863894 0.000000 0.503674
vn 0.492056 0.000000 0.870564
vn 0.633275 0.432478 0.641814
vn 0.075975 0.994134 -0.076982
vn 0.236557 0.941589 -0.239689
vn 0.492108 0.000000 -0.870534
vn 0.863986 0.000000 -0.503517
s 1
g pCube1
usemtl initialShadingGroup
f 38/27/1 39/28/2 28/20/3 16/10/4
s 2
f 65/45/5 66/180/6 67/179/7 68/177/8
s 3
f 14/207/9 9/164/10 35/194/11 36/206/12
f 18/211/13 19/176/14 25/189/15 26/209/16
f 10/191/17 11/201/18 31/200/19 32/169/20
f 30/203/21 23/153/22 21/196/23 22/204/24
f 23/195/22 24/17/25 20/13/26 21/162/23
f 8/205/27 11/201/18 10/191/17 3/156/28
s 1
f 15/54/29 16/10/4 28/20/3 29/21/30
s 3
f 1/163/31 9/164/10 14/207/9 5/208/32
s 1
f 37/81/33 38/27/1 16/10/4 13/74/34
s 3
f 2/175/35 19/176/14 18/211/13 6/212/36
f 9/193/10 20/13/26 34/24/37 35/174/11
f 50/29/38 49/160/39 51/159/40 52/32/41
f 22/204/24 21/196/23 1/163/31 5/208/32
f 53/33/42 54/158/43 55/157/44 56/36/45
f 32/192/20 33/23/46 24/17/25 10/155/17
f 26/209/16 25/189/15 4/172/47 7/210/48
s 1
f 12/117/49 28/20/3 39/28/2 40/53/50
s 3
f 3/156/28 23/153/22 30/203/21 8/205/27
f 32/169/20 31/200/19 7/202/48 4/199/47
f 58/37/51 57/168/52 59/167/53 60/40/54
f 19/190/14 34/197/37 33/23/46 25/171/15
f 62/41/55 61/166/56 63/43/57 64/44/58
f 36/206/12 35/194/11 2/175/35 6/212/36
s 1
f 27/78/59 39/28/2 38/27/1 17/11/60
f 14/58/61 36/26/62 42/229/63 41/227/64
f 31/63/65 11/9/66 43/232/67 44/225/68
f 18/61/69 26/19/70 46/230/71 45/226/72
f 30/55/73 22/15/74 48/231/75 47/228/76
f 11/9/66 8/259/77 130/126/78 43/232/67
f 5/57/79 14/58/61 41/227/64 134/224/80
f 6/60/81 18/61/69 45/226/72 137/218/82
f 22/15/74 5/257/79 133/122/83 48/231/75
f 26/19/70 7/261/84 139/132/85 46/230/71
f 8/6/77 30/55/73 47/228/76 131/221/86
f 36/26/62 6/263/81 136/128/87 42/229/63
f 7/5/84 31/63/65 44/225/68 140/215/88
s 3
f 21/14/23 20/161/26 49/30/39 50/186/38
f 20/161/26 9/7/10 51/31/40 49/30/39
f 9/7/10 1/1/31 52/32/41 51/31/40
f 1/1/31 21/185/23 50/29/38 52/32/41
f 3/3/28 10/8/17 54/34/43 53/33/42
f 10/8/17 24/154/25 55/35/44 54/34/43
f 24/154/25 23/187/22 56/188/45 55/35/44
f 23/16/22 3/3/28 53/33/42 56/36/45
f 25/18/15 33/170/46 57/38/52 58/182/51
f 33/170/46 32/22/20 59/39/53 57/38/52
f 32/22/20 4/4/47 60/40/54 59/39/53
f 4/4/47 25/181/15 58/37/51 60/40/54
f 35/25/11 34/173/37 61/42/56 62/165/55
f 34/173/37 19/183/14 63/184/57 61/42/56
f 19/12/14 2/2/35 64/44/58 63/43/57
f 2/2/35 35/25/11 62/165/55 64/44/58
s 2
f 33/23/89 34/197/90 66/198/6 65/178/5
f 34/24/90 20/13/91 67/47/7 66/46/6
f 20/13/91 24/17/92 68/48/8 67/47/7
f 24/17/92 33/23/89 65/178/5 68/48/8
s 1
f 71/86/93 70/84/94 73/235/95 72/82/96
f 70/247/94 69/66/97 74/110/98 73/108/95
f 77/90/99 76/88/100 79/233/101 78/72/102
f 76/245/100 75/73/103 80/114/104 79/112/101
f 83/94/105 82/92/106 85/241/107 84/79/108
f 82/243/106 81/67/109 86/98/110 85/96/107
f 89/102/111 88/100/112 91/237/113 90/77/114
f 88/239/112 87/70/115 92/106/116 91/104/113
f 69/66/97 41/59/64 42/49/63 74/110/98
f 43/50/67 77/90/99 78/72/102 44/64/68
f 81/67/109 45/62/72 46/51/71 86/98/110
f 87/70/115 47/56/76 48/52/75 92/106/116
f 37/81/33 13/74/34 71/86/93 72/82/96
f 12/117/49 40/53/50 80/114/104 75/73/103
f 27/78/59 17/11/60 83/94/105 84/79/108
f 15/54/29 29/21/30 89/102/111 90/77/114
f 98/107/117 97/252/118 100/135/119 99/105/120
f 97/252/118 96/248/121 101/75/122 100/135/119
f 107/103/123 106/251/124 109/138/125 108/101/126
f 106/251/124 105/246/127 110/65/128 109/138/125
f 116/111/129 115/250/130 118/141/131 117/109/132
f 115/250/130 114/244/133 119/76/134 118/141/131
f 125/115/135 124/249/136 127/144/137 126/113/138
f 124/249/136 123/242/139 128/69/140 127/144/137
f 110/65/128 77/90/99 43/50/67 130/219/141
f 93/85/142 134/121/143 41/59/64 69/66/97
f 111/93/144 137/127/145 45/62/72 81/67/109
f 92/106/116 48/52/75 133/222/146 95/68/147
f 86/98/110 46/51/71 139/213/148 128/69/140
f 108/101/126 131/125/149 47/56/76 87/70/115
f 74/110/98 42/49/63 136/216/150 113/71/151
f 44/64/68 78/72/102 126/113/138 140/131/152
f 102/89/153 143/124/154 12/117/49 75/73/103
f 13/74/34 145/123/155 101/75/122 71/86/93
f 17/11/60 148/119/156 119/76/134 83/94/105
f 99/105/120 146/118/157 15/54/29 90/77/114
f 120/97/158 152/120/159 27/78/59 84/79/108
f 29/21/30 142/116/160 104/80/161 89/102/111
f 117/109/132 149/129/162 37/81/33 72/82/96
f 40/53/50 151/130/163 122/83/164 80/114/104
f 69/66/97 70/247/94 96/87/165 93/85/142
f 70/84/94 71/86/93 101/75/122 96/248/121
f 75/73/103 76/245/100 105/91/166 102/89/153
f 76/88/100 77/90/99 110/65/128 105/246/127
f 81/67/109 82/243/106 114/95/167 111/93/144
f 82/92/106 83/94/105 119/76/134 114/244/133
f 84/79/108 85/241/107 123/99/168 120/97/158
f 85/96/107 86/98/110 128/69/140 123/242/139
f 87/70/115 88/239/112 107/103/123 108/101/126
f 88/100/112 89/102/111 104/80/161 107/240/169
f 90/77/114 91/237/113 98/107/117 99/105/120
f 91/104/113 92/106/116 95/68/147 98/238/170
f 72/82/96 73/235/95 116/111/129 117/109/132
f 73/108/95 74/110/98 113/71/151 116/236/171
f 78/72/102 79/233/101 125/115/135 126/113/138
f 79/112/101 80/114/104 122/83/164 125/234/172
f 8/6/77 131/221/86 129/220/173
f 8/259/77 129/258/173 130/126/78
f 5/57/79 134/224/80 132/223/174
f 5/257/79 132/256/174 133/122/83
f 6/60/81 137/218/82 135/217/175
f 6/263/81 135/262/175 136/128/87
f 7/5/84 140/215/88 138/214/176
f 7/261/84 138/260/176 139/132/85
f 141/149/177 28/20/3 12/117/49 143/124/154
f 144/150/178 16/10/4 15/54/29 146/118/157
f 147/151/179 38/27/1 37/81/33 149/129/162
f 150/152/180 39/28/2 27/78/59 152/120/159
f 93/85/142 94/133/181 132/146/182 134/121/143
f 94/133/181 95/68/147 133/222/146 132/146/182
f 95/68/147 94/133/181 97/134/183 98/238/170
f 94/133/181 93/85/142 96/87/165 97/134/183
f 99/105/120 100/135/119 144/150/178 146/118/157
f 100/135/119 101/75/122 145/123/155 144/150/178
f 102/89/153 103/136/184 141/149/177 143/124/154
f 103/136/184 104/80/161 142/116/160 141/149/177
f 104/80/161 103/136/184 106/137/185 107/240/169
f 103/136/184 102/89/153 105/91/166 106/137/185
f 108/101/126 109/138/125 129/145/186 131/125/149
f 109/138/125 110/65/128 130/219/141 129/145/186
f 111/93/144 112/139/187 135/147/188 137/127/145
f 112/253/187 113/71/151 136/216/150 135/255/189
f 113/71/151 112/253/187 115/140/190 116/236/171
f 112/139/187 111/93/144 114/95/167 115/254/190
f 117/109/132 118/141/131 147/151/179 149/129/162
f 118/141/131 119/76/134 148/119/156 147/151/179
f 120/97/158 121/142/191 150/152/180 152/120/159
f 121/142/191 122/83/164 151/130/163 150/152/180
f 122/83/164 121/142/191 124/143/192 125/234/172
f 121/142/191 120/97/158 123/99/168 124/143/192
f 126/113/138 127/144/137 138/148/193 140/131/152
f 127/144/137 128/69/140 139/213/148 138/148/194
f 150/152/180 151/130/163 40/53/50 39/28/2
f 147/151/179 148/119/156 17/11/60 38/27/1
f 141/149/177 142/116/160 29/21/30 28/20/3
f 144/150/178 145/123/155 13/74/34 16/10/4
